<?xml version="1.0" encoding="UTF-8"?>
<svg width="31px" height="31px" viewBox="0 0 31 31" version="1.1" xmlns="http://www.w3.org/2000/svg" xmlns:xlink="http://www.w3.org/1999/xlink">
    <title>sq-cpu</title>
    <g id="Showcase" stroke="none" stroke-width="1" fill="none" fill-rule="evenodd">
        <g id="Desktop" transform="translate(-114.000000, -1961.000000)">
            <g id="sq-cpu" transform="translate(114.000000, 1961.000000)">
                <rect id="Rectangle" fill="#43454D" x="0" y="0" width="31" height="31" rx="5"></rect>
                <g id="processor-sg" transform="translate(7.000000, 7.000000)">
                    <path d="M2.8021978,0 L3.64285714,0 L3.64285714,1.50276243 L2.8021978,1.50276243 L2.8021978,0 Z M4.85714286,0 L5.69780222,0 L5.69780222,1.50276243 L4.85714286,1.50276243 L4.85714286,0 Z M6.9120879,0 L7.75274723,0 L7.75274723,1.50276243 L6.9120879,1.50276243 L6.9120879,0 Z M8.96703296,0 L9.80769229,0 L9.80769229,1.50276243 L8.96703296,1.50276243 L8.96703296,0 Z M10.9285714,0 L11.7692307,0 L11.7692307,1.50276243 L10.9285714,1.50276243 L10.9285714,0 Z M12.9835165,0 L13.8241758,0 L13.8241758,1.50276243 L12.9835165,1.50276243 L12.9835165,0 Z M2.8021978,15.4972376 L3.64285714,15.4972376 L3.64285714,17 L2.8021978,17 L2.8021978,15.4972376 Z M4.85714286,15.4972376 L5.69780222,15.4972376 L5.69780222,17 L4.85714286,17 L4.85714286,15.4972376 Z M6.9120879,15.4972376 L7.75274723,15.4972376 L7.75274723,17 L6.9120879,17 L6.9120879,15.4972376 Z M8.96703296,15.4972376 L9.80769229,15.4972376 L9.80769229,17 L8.96703296,17 L8.96703296,15.4972376 Z M10.9285714,15.4972376 L11.7692307,15.4972376 L11.7692307,17 L10.9285714,17 L10.9285714,15.4972376 Z M12.9835165,15.4972376 L13.8241758,15.4972376 L13.8241758,17 L12.9835165,17 L12.9835165,15.4972376 Z M15.4120879,2.81767956 L17,2.81767956 L17,3.66298343 L15.4120879,3.66298343 L15.4120879,2.81767956 Z M15.4120879,4.8839779 L17,4.8839779 L17,5.72928179 L15.4120879,5.72928179 L15.4120879,4.8839779 Z M15.4120879,6.85635361 L17,6.85635361 L17,7.70165744 L15.4120879,7.70165744 L15.4120879,6.85635361 Z M15.4120879,8.92265194 L17,8.92265194 L17,9.76795582 L15.4120879,9.76795582 L15.4120879,8.92265194 Z M15.4120879,10.9889503 L17,10.9889503 L17,11.8342541 L15.4120879,11.8342541 L15.4120879,10.9889503 Z M15.4120879,13.0552486 L17,13.0552486 L17,13.9005525 L15.4120879,13.9005525 L15.4120879,13.0552486 Z M0,2.81767956 L1.58791209,2.81767956 L1.58791209,3.66298343 L0,3.66298343 L0,2.81767956 Z M0,4.8839779 L1.58791209,4.8839779 L1.58791209,5.72928179 L0,5.72928179 L0,4.8839779 Z M0,6.85635361 L1.58791209,6.85635361 L1.58791209,7.70165744 L0,7.70165744 L0,6.85635361 Z M0,8.92265194 L1.58791209,8.92265194 L1.58791209,9.76795582 L0,9.76795582 L0,8.92265194 Z M0,10.9889503 L1.58791209,10.9889503 L1.58791209,11.8342541 L0,11.8342541 L0,10.9889503 Z M0,13.0552486 L1.58791209,13.0552486 L1.58791209,13.9005525 L0,13.9005525 L0,13.0552486 Z" id="Shape" fill="#B0B2B9" fill-rule="nonzero"></path>
                    <rect id="Rectangle" stroke="#B0B2B9" stroke-width="0.5" x="2.34482759" y="2.34482759" width="12.3103448" height="12.3103448" rx="1.36551724"></rect>
                    <rect id="Rectangle" stroke="#B0B2B9" stroke-width="0.5" x="4.10344828" y="4.10344828" width="8.79310344" height="8.79310344"></rect>
                    <circle id="Oval" fill="#B0B2B9" fill-rule="nonzero" cx="5.5689655" cy="6.15517243" r="1"></circle>
                    <circle id="Oval" fill="#B0B2B9" fill-rule="nonzero" cx="11.4310345" cy="12.0172414" r="1"></circle>
                </g>
            </g>
        </g>
    </g>
</svg>