<?xml version="1.0" encoding="UTF-8"?>
<svg width="31px" height="31px" viewBox="0 0 31 31" version="1.1" xmlns="http://www.w3.org/2000/svg" xmlns:xlink="http://www.w3.org/1999/xlink">
    <title>Group 9</title>
    <g id="Showcase-Ajustes-gama" stroke="none" stroke-width="1" fill="none" fill-rule="evenodd">
        <g id="Desktop" transform="translate(-184.000000, -3368.000000)" fill-rule="nonzero">
            <g id="Group-9" transform="translate(184.000000, 3368.000000)">
                <g id="sq-ssd" fill="#43454D">
                    <rect id="Rectangle" x="0" y="0" width="31" height="31" rx="5"></rect>
                </g>
                <g id="noun-computer-fan-2575244" transform="translate(6.000000, 6.000000)" fill="#B0B2B9">
                    <path d="M17.1007708,0 L1.89947786,0 C0.852077986,0 0,0.852042466 0,1.89947786 L0,17.1004156 C0,18.1479575 0.852042466,19 1.89947786,19 L17.1004156,19 C18.1479575,19 19,18.1479575 19,17.1004156 L19,1.89947786 C19,0.852077986 18.1479575,0 17.1005221,0 L17.1007708,0 Z M18.4065397,17.1008773 C18.4065397,17.8208582 17.8208937,18.4066463 17.1007708,18.4066463 L1.89947786,18.4066463 C1.17949701,18.4066463 0.593708931,17.8208582 0.593708931,17.1008773 L0.593708931,1.89958442 C0.593708931,1.17960356 1.17949701,0.593815489 1.89947786,0.593815489 L17.1004156,0.593815489 C17.8206451,0.593815489 18.4063266,1.17960356 18.4063266,1.89958442 L18.4065397,17.1008773 Z" id="Shape"></path>
                    <path d="M9.5013675,1.32534019 C4.99287366,1.32534019 1.32548227,4.99308678 1.32548227,9.50122542 C1.32548227,14.0097193 4.99322886,17.6771107 9.5013675,17.6771107 C14.0098613,17.6771107 17.6776079,14.0093641 17.6776079,9.50122542 C17.6776079,4.99308678 14.0098613,1.32534019 9.5013675,1.32534019 Z M9.5013675,17.0835793 C5.32036372,17.0835793 1.9190136,13.6821582 1.9190136,9.50122542 C1.9190136,5.32022164 5.32043476,1.91887153 9.5013675,1.91887153 C13.6823713,1.91887153 17.0837214,5.32029268 17.0837214,9.50122542 C17.0837214,13.6822292 13.6824423,17.0835793 9.5013675,17.0835793 Z" id="Shape"></path>
                    <path d="M16.8549756,1.19033046 C16.3647706,1.19033046 15.9660284,1.58910822 15.9660284,2.07927772 C15.9660284,2.57129424 16.3646641,2.97170589 16.8549756,2.97170589 C17.3469922,2.97170589 17.7474038,2.57129424 17.7474038,2.07927772 C17.7472651,1.5890727 17.3469922,1.19033046 16.8549756,1.19033046 Z M16.8549756,2.3778904 C16.6923637,2.3778904 16.5598581,2.24399954 16.5598581,2.07930614 C16.5598581,1.91932973 16.6949992,1.78418858 16.8549756,1.78418858 C17.019669,1.78418858 17.1535599,1.91655565 17.1535599,2.07930614 C17.1535599,2.24399954 17.019669,2.3778904 16.8549756,2.3778904 Z" id="Shape"></path>
                    <path d="M16.8549756,16.0285783 C16.3647706,16.0285783 15.9660284,16.427356 15.9660284,16.9175255 C15.9660284,17.409542 16.3646641,17.8099537 16.8549756,17.8099537 C17.3469922,17.8099537 17.7474038,17.409542 17.7474038,16.9175255 C17.7472651,16.4273205 17.3469922,16.0285783 16.8549756,16.0285783 Z M16.8549756,17.2159961 C16.6923637,17.2159961 16.5598581,17.0821053 16.5598581,16.9174119 C16.5598581,16.7574355 16.6949992,16.6222943 16.8549756,16.6222943 C17.019669,16.6222943 17.1535599,16.7546614 17.1535599,16.9174119 C17.1535599,17.0821053 17.019669,17.2159961 16.8549756,17.2159961 Z" id="Shape"></path>
                    <path d="M2.14207625,2.97156381 C2.63419932,2.97156381 3.0346465,2.57115216 3.0346465,2.07913564 C3.0346465,1.5890727 2.63423484,1.19018838 2.14207625,1.19018838 C1.6520133,1.19018838 1.25327107,1.58896614 1.25327107,2.07913564 C1.25340981,2.57125872 1.65204882,2.97156381 2.14207625,2.97156381 Z M2.14207625,1.78414595 C2.30676965,1.78414595 2.44080259,1.91651303 2.44080259,2.07926351 C2.44080259,2.24395691 2.3067732,2.37784778 2.14207625,2.37784778 C1.97946429,2.37784778 1.84709721,2.24395691 1.84709721,2.07926351 C1.84709721,1.91914858 1.98223837,1.78414595 2.14207625,1.78414595 L2.14207625,1.78414595 Z" id="Shape"></path>
                    <path d="M2.14207625,16.0285783 C1.6520133,16.0285783 1.25327107,16.427356 1.25327107,16.9175255 C1.25327107,17.409542 1.65190674,17.8099537 2.14207625,17.8099537 C2.63419932,17.8099537 3.0346465,17.409542 3.0346465,16.9175255 C3.0346465,16.4273205 2.63423484,16.0285783 2.14207625,16.0285783 Z M2.14207625,17.2159961 C1.97946429,17.2159961 1.84709721,17.0821053 1.84709721,16.9174119 C1.84709721,16.7574355 1.98223837,16.6222943 2.14207625,16.6222943 C2.30676965,16.6222943 2.44080259,16.7546614 2.44080259,16.9174119 C2.44080259,17.0821053 2.3067732,17.2159961 2.14207625,17.2159961 Z" id="Shape"></path>
                    <path d="M16.5257096,8.9715582 C16.2720788,8.44583365 15.5677834,8.19027064 14.3732972,8.19027064 C13.3342089,8.19027064 12.1137934,8.38313103 11.1999824,8.56265738 C11.1297745,8.43459172 11.0423645,8.31707181 10.9448243,8.20773914 C12.2672164,6.98856682 12.9037974,6.05145509 12.8363813,5.42002442 C12.7163644,4.3183507 10.7292208,2.37727947 9.43318421,2.37727947 C9.26238501,2.37727947 9.10657149,2.41113384 8.97143033,2.47731667 C8.08663886,2.90436797 7.95095426,4.69810419 8.5632399,7.80311488 C8.43545129,7.87387688 8.31821198,7.96239865 8.2092949,8.06132409 C7.04645655,6.80553114 6.13946538,6.16117136 5.51812225,6.16117136 C5.4851001,6.16117136 5.45249282,6.16297508 5.41988944,6.16644388 C4.52483282,6.26398406 3.27415468,7.46930021 2.71195157,8.49020252 C2.36924495,9.11222051 2.28834567,9.64568832 2.47732732,10.0314304 C2.73095807,10.557155 3.43525351,10.812718 4.63013047,10.812718 C5.66989365,10.812718 6.89087746,10.6195805 7.80468839,10.4401892 C7.87586598,10.5685319 7.96313746,10.6856362 8.05998501,10.7935801 C6.73674047,12.0137469 6.09948459,12.9515335 6.16647443,13.5832484 C6.28649136,14.6849221 8.27377705,16.6259933 9.56967156,16.6259933 C9.74047076,16.6259933 9.89628428,16.5921386 10.0314254,16.5259561 C10.916359,16.0989048 11.0520436,14.3050265 10.4399,11.2005131 C10.5676886,11.1300281 10.6854856,11.0419255 10.7950953,10.9432736 C11.9571167,12.1982496 12.8636817,12.8421831 13.4852734,12.8421831 C13.5182956,12.8421831 13.5507643,12.8403794 13.5832292,12.8369106 C14.4785699,12.7393704 15.7289639,11.5339122 16.2914512,10.5130099 C16.6334652,9.89099187 16.7146309,9.35752406 16.5256599,8.97178198 L16.5257096,8.9715582 Z M9.99473376,10.7542123 C9.31346919,11.0242176 8.52635643,10.6920532 8.24774124,9.99302883 C7.95859096,9.27500154 8.36317971,8.49801184 9.01212151,8.24688877 C9.66965903,7.97508268 10.4782611,8.29669781 10.7538216,9.00736189 L10.7542379,9.00833314 C11.0304839,9.70305961 10.6812559,10.488645 9.99472378,10.754189 L9.99473376,10.7542123 Z M9.23106388,3.01095497 C9.28573199,2.98431532 9.35371637,2.97085697 9.43321973,2.97085697 C10.4040395,2.97085697 12.1568572,4.66233247 12.2461888,5.48357951 C12.2810147,5.80977666 11.8316049,6.59189538 10.4846333,7.82438752 C10.4549411,7.81398137 9.89799277,7.44532311 9.12672172,7.59573055 C8.6388965,5.06425371 8.67537506,3.27939736 9.23106033,3.01086972 L9.23106388,3.01095497 Z M4.62986407,10.2185778 C3.73825285,10.2185778 3.14830899,10.0561044 3.01095497,9.77152904 C2.91313774,9.57145464 2.99361149,9.20861554 3.23184382,8.77627183 C3.75657382,7.82363806 4.87227776,6.82312396 5.48317814,6.75652484 C5.49469428,6.75527612 5.50621042,6.75458239 5.51800397,6.75458239 C5.9531182,6.75458239 6.80988477,7.41112537 7.82982805,8.52111065 C7.50751674,9.06498568 7.57702845,9.47044111 7.59603851,9.87610965 C6.72165426,10.0445504 5.58684082,10.2185392 4.62987366,10.2185392 L4.62986407,10.2185778 Z M9.77167112,15.9915669 C9.71700301,16.0182066 9.64901863,16.0316649 9.56951527,16.0316649 C8.59883758,16.0316649 6.84616193,14.3401894 6.75668823,13.5192265 C6.7218624,13.1924753 7.17194705,12.4093833 8.52058805,11.175648 C9.11969595,11.529593 9.73642154,11.4054167 9.87615537,11.4056938 C10.3639806,13.9379876 10.3273599,15.7230926 9.77167822,15.9916202 L9.77167112,15.9915669 Z M15.7709196,10.2260369 C15.2459054,11.1788128 14.130237,12.1793269 13.5194432,12.2460681 C13.0839027,12.2919948 12.2208847,11.6215637 11.1752964,10.4836956 C11.579331,9.80051298 11.4047845,9.15629528 11.4058962,9.12660095 C12.2808488,8.95788319 13.4159464,8.7837558 14.3733043,8.7837558 C15.2647734,8.7837558 15.854149,8.94622923 15.9916451,9.23080459 C16.0894623,9.430879 16.00885,9.79371809 15.7708983,10.2260618 L15.7709196,10.2260369 Z" id="Shape"></path>
                </g>
            </g>
        </g>
    </g>
</svg>