<?xml version="1.0" encoding="UTF-8"?>
<svg width="31px" height="31px" viewBox="0 0 31 31" version="1.1" xmlns="http://www.w3.org/2000/svg" xmlns:xlink="http://www.w3.org/1999/xlink">
    <title>sq-gpu</title>
    <g id="Showcase" stroke="none" stroke-width="1" fill="none" fill-rule="evenodd">
        <g id="Desktop" transform="translate(-113.000000, -1920.000000)">
            <g id="sq-gpu" transform="translate(113.000000, 1920.000000)">
                <rect id="Rectangle" fill="#43454D" x="0" y="0" width="31" height="31" rx="5"></rect>
                <g id="gpu-sg" transform="translate(10.000000, 6.000000)">
                    <g id="Group" transform="translate(5.500000, 10.500000) rotate(-90.000000) translate(-5.500000, -10.500000) translate(-5.380648, 5.192412)">
                        <path d="M7.1219972,4.75852742 C6.74018504,4.75852742 6.42947383,5.04597857 6.42947383,5.39898879 C6.42947383,5.75221825 6.74018504,6.03966943 7.1219972,6.03966943 C7.50357237,6.03966943 7.81428358,5.75221825 7.81428358,5.39898879 C7.81404658,5.04575933 7.50357237,4.75852742 7.1219972,4.75852742 Z M6.83058122,6.41175448 C6.78099067,7.05582841 7.071845,7.63005486 7.62702851,7.96138242 C8.15522554,7.85907384 8.62829632,7.60923496 9.00126338,7.25843073 C8.37757571,7.21768636 7.77280165,6.91076063 7.36269932,6.40570998 C7.27412831,6.42764923 7.18278943,6.44242468 7.08729878,6.44242468 C6.99872777,6.44264855 6.9133859,6.43033568 6.83058122,6.41175448 Z M6.55669689,4.483997 C6.70720727,4.41511034 6.87410758,4.37278499 7.05255014,4.37278499 C7.14442612,4.37278499 7.23237773,4.38574172 7.31802091,4.40517684 C7.34595308,3.77807068 7.02646473,3.24490089 6.41265009,2.94063347 L6.41957546,2.92832457 C5.78059877,3.06955303 5.22841954,3.41873714 4.84683412,3.89554512 C5.47034423,3.84782113 6.09223839,4.05858408 6.55669689,4.483997 Z M7.78420866,4.54271524 C7.97834377,4.68875545 8.12139065,4.89040007 8.17565764,5.12456801 C8.78258529,4.93068702 9.20196253,4.48459291 9.29800832,3.8993829 C8.81369231,3.26549282 8.02057663,2.84835496 7.12187871,2.83681443 C7.63434995,3.26108643 7.8743509,3.8723151 7.78420866,4.54271524 Z M5.87500302,5.18678153 C5.90452931,4.98042275 5.99585495,4.79413862 6.1327289,4.64282324 C5.68456972,4.25600846 5.06611917,4.11267976 4.49390364,4.27586724 C4.34054987,4.59749338 4.25334423,4.95322484 4.25334423,5.32816753 C4.25334423,5.67742329 4.32819002,6.01027395 4.46231734,6.31419983 C4.72072987,5.76462927 5.22839946,5.35471786 5.87500302,5.18678153 Z M6.36739911,6.21074794 C6.18649363,6.07516446 6.05195665,5.88917179 5.98503077,5.67362887 C5.38612416,5.857666 4.96789458,6.30113693 4.84683412,6.88562327 C5.3178278,7.50704748 6.06908785,7.92161995 6.92404876,7.96138242 C6.4724704,7.50900302 6.26529717,6.87475922 6.36739911,6.21074794 Z" id="Shape"></path>
                        <rect id="Rectangle" x="1.08806481" y="1.46416229" width="1" height="2.10473328"></rect>
                        <path d="M8.12778253,5.61823433 C8.06929895,5.85345258 7.91924555,6.05581558 7.71536858,6.20000186 C8.13081154,6.62774746 8.75292741,6.83910901 9.34195698,6.75268094 C9.62598664,6.36113888 9.79258325,5.89488783 9.79258325,5.39389811 C9.79258325,5.07267039 9.72244956,4.76630072 9.59872539,4.483997 C9.34149097,5.03646685 8.80977994,5.4497729 8.12778253,5.61823433 Z" id="Path"></path>
                        <polygon id="Path" points="10.8621509 7.3208114 10.0893282 8.32742297 14.0459275 8.32742297 13.2729069 7.3208114"></polygon>
                        <rect id="Rectangle" x="1.08806481" y="4.94154771" width="1" height="2.10473328"></rect>
                        <polygon id="Path" points="13.0752748 1.46416229 13.8480975 0.457550714 9.89149819 0.457550714 10.664321 1.46416229"></polygon>
                        <path d="M17.8214507,5.43524749 C17.7629672,5.67047264 17.6131468,5.87284163 17.4090368,6.01703214 C17.8249457,6.44479037 18.4475276,6.65594889 19.0358583,6.56972757 C19.3196549,6.17817394 19.4862515,5.7119091 19.4862515,5.21090463 C19.4862515,4.88966744 19.4158848,4.58328876 19.2926267,4.30097671 C19.0349262,4.85346285 18.5034482,5.26678108 17.8214507,5.43524749 Z M15.5684738,5.0953191 C15.5979965,4.88896906 15.6895398,4.70290866 15.8263971,4.55159968 C15.3778348,4.16458541 14.7592307,4.02104694 14.1877714,4.18444337 C14.0344364,4.50627174 13.9470125,4.86177229 13.9470125,5.2366991 C13.9470125,5.58594007 14.0218492,5.91877668 14.1557313,6.22268973 C14.41457,5.67335824 14.9217201,5.26324833 15.5684738,5.0953191 Z M15.9615284,6.11808683 C15.7808712,5.98268207 15.6465774,5.79707105 15.579659,5.58211872 C14.9876699,5.76751241 14.5617209,6.21784732 14.4415874,6.79402389 C14.9125293,7.4156252 15.6639351,7.83031585 16.518802,7.86987226 C16.0668165,7.41736392 15.8592093,6.78272205 15.9615284,6.11808683 Z M16.1517522,4.39248686 C16.3020177,4.32359064 16.4689025,4.28147538 16.6473284,4.28147538 C16.7389649,4.28147538 16.8271392,4.29464989 16.9127744,4.31387173 C16.9407039,3.68646254 16.6212454,3.15300274 16.0072573,2.84890907 L16.0141819,2.83681443 C15.3752649,2.97806248 14.823368,3.32729508 14.4415874,3.80416926 C15.0650393,3.75643864 15.6873371,3.96701487 16.1517522,4.39248686 Z M16.4253268,6.31979579 C16.3757413,6.96422469 16.667027,7.53881624 17.2223842,7.86987226 C17.7505269,7.76735456 18.2235491,7.5173278 18.5960166,7.16679787 C17.972393,7.12605939 17.3676811,6.81917785 16.9576208,6.31419983 C16.8688283,6.33591214 16.7777294,6.35068542 16.6822487,6.35068542 C16.593456,6.35090924 16.5081229,6.33859818 16.4253268,6.31979579 Z M17.379031,4.45136157 C17.5729592,4.59741518 17.715794,4.79907829 17.7702939,5.03305785 C18.3770577,4.83936894 18.7964787,4.39344376 18.8927616,3.80818007 C18.4083951,3.17423185 17.6151966,2.75684587 16.716632,2.74530428 C17.2293838,3.16940536 17.4694098,3.78089994 17.379031,4.45136157 Z M16.716869,4.66701728 C16.3349915,4.66701728 16.0242271,4.95446845 16.0242271,5.30747864 C16.0242271,5.6607081 16.3349915,5.94815927 16.716869,5.94815927 C17.0985095,5.94815927 17.4090368,5.6607081 17.4090368,5.30747864 C17.4090368,4.95446845 17.0985095,4.66701728 16.716869,4.66701728 Z" id="Shape"></path>
                        <path d="M0,0.435068832 L1.41106055,0.435068832 L1.41106055,1.01175256 L0.588449244,1.01175256 L0.588449244,4.02764971 L1.41106055,4.02764971 L1.41106055,4.45989059 L0.588449244,4.45989059 L0.588449244,7.47557018 L1.41106055,7.47557018 L1.41106055,9.97460556 L1.87938466,9.97460556 L1.87938466,0 L0,0 L0,0.435068832 Z M1.05677336,3.59258087 L1.05677336,1.4468214 L1.41106055,1.4468214 L1.41106055,3.59258087 L1.05677336,3.59258087 Z M1.05677336,7.04050139 L1.05677336,4.89495942 L1.41106055,4.89495942 L1.41106055,7.04050139 L1.05677336,7.04050139 Z M20.6263914,0 L3.21211935,0 C2.58629579,0 2.07721462,0.574064273 2.07721462,1.27950907 L2.07721462,9.33566747 C2.07721462,10.0411123 2.58629579,10.6151766 3.21211935,10.6151766 L20.6263914,10.6151766 C21.2522149,10.6151766 21.7612961,10.0411123 21.7612961,9.33566747 L21.7612961,1.27950907 C21.7610621,0.574064273 21.2522149,0 20.6263914,0 Z M13.9032916,0.527632603 L13.1282062,1.68605 L10.7100706,1.68605 L9.93498517,0.527632603 L13.9032916,0.527632603 Z M10.010084,10.087544 L10.7851695,8.92886277 L13.203071,8.92886277 L13.9781565,10.087544 L10.010084,10.087544 Z M21.2931567,9.33566747 C21.2931567,9.75012297 20.9941651,10.087544 20.6261574,10.087544 L14.564442,10.087544 L13.4363219,8.40123015 L10.5521526,8.40123015 L9.42356454,10.087544 L3.21211935,10.087544 C2.84434565,10.087544 2.5451201,9.75038671 2.5451201,9.33566747 L2.5451201,1.27950907 C2.5451201,0.86478984 2.84434565,0.527632603 3.21211935,0.527632603 L9.34893362,0.527632603 L10.4770538,2.2136826 L13.361223,2.2136826 L14.4893431,0.527632603 L20.6261574,0.527632603 C20.9939311,0.527632603 21.2931567,0.86478984 21.2931567,1.27950907 L21.2931567,9.33566747 Z" id="Shape" fill="#B0B2B9" fill-rule="nonzero"></path>
                        <path d="M7.12187871,2.28775357 C5.3218886,2.28775357 3.8576843,3.62203578 3.8576843,5.26204654 C3.8576843,6.90205731 5.3218886,8.23591287 7.12187871,8.23591287 C8.92186886,8.23591287 10.3860731,6.90184396 10.3860731,5.26204654 C10.3860731,3.62203578 8.92186886,2.28775357 7.12187871,2.28775357 Z M9.40517567,3.7967683 C9.30612585,4.39179757 8.87363185,4.84537672 8.24772138,5.04251084 C8.19175705,4.80441379 8.04447022,4.59917242 7.84402903,4.45089515 C7.93699067,3.76924633 7.68948324,3.14776182 7.16098351,2.71637093 C8.08778989,2.7281051 8.90571176,3.15224215 9.40517567,3.7967683 Z M9.0647066,7.08959076 C8.68630361,7.42369471 8.20580667,7.66200511 7.66957962,7.75950541 C7.10595584,7.44396283 6.81067969,6.89651028 6.86102414,6.28270633 C6.94508769,6.30041424 7.03172703,6.31214841 7.1214104,6.31214841 C7.21835274,6.31214841 7.3110802,6.29806742 7.40099775,6.27715924 C7.81756894,6.75847374 8.43153723,7.05097468 9.0647066,7.08959076 Z M7.12187871,5.8854512 C6.7446465,5.8854512 6.43766235,5.60575119 6.43766235,5.26204654 C6.43766235,4.91834195 6.7446465,4.63885527 7.12187871,4.63885527 C7.49887679,4.63885527 7.80586093,4.9185553 7.80586093,5.26204654 C7.80562676,5.60575119 7.49887679,5.8854512 7.12187871,5.8854512 Z M6.47981119,2.78485584 L6.47278641,2.7970167 C7.09541861,3.0976249 7.41949646,3.62438262 7.39116306,4.24394699 C7.3042896,4.22474562 7.21507452,4.21194469 7.12187871,4.21194469 C6.94087282,4.21194469 6.77134077,4.25354767 6.61890241,4.32181923 C6.14777191,3.90152247 5.51694409,3.69329422 4.88471132,3.74044426 C5.2715441,3.26937053 5.83165555,2.92438583 6.47981119,2.78485584 Z M4.57187318,4.22197208 C5.1572739,4.06068053 5.78974084,4.20234401 6.24846086,4.58466472 C6.10843298,4.73422209 6.01500304,4.9181286 5.98479633,5.12230323 C5.32329356,5.28828845 4.80392602,5.69365078 4.53955906,6.23683635 C4.40234114,5.93644151 4.32577072,5.60745795 4.32577072,5.26225989 C4.32577072,4.89146002 4.41521994,4.53986151 4.57187318,4.22197208 Z M4.85427048,6.74652621 C4.97837544,6.17261845 5.40712293,5.73717394 6.02109122,5.55646764 C6.08946602,5.76789613 6.22738641,5.9507359 6.41307552,6.08386541 C6.30840588,6.7360721 6.52078925,7.35883671 6.98372414,7.80302852 C6.1072622,7.76377238 5.33710899,7.35670325 4.85427048,6.74652621 Z M9.46488656,6.64731911 C8.87292937,6.73543205 8.24772138,6.51994998 7.83021359,6.08386541 C8.03510383,5.93686821 8.18590305,5.7305601 8.24467729,5.49075628 C8.93006448,5.31879728 9.46418408,4.89764713 9.72293116,4.33440679 C9.84703617,4.62221407 9.91775253,4.93455644 9.91775253,5.26204654 C9.91775253,5.77280316 9.75032796,6.24814387 9.46488656,6.64731911 Z M16.6178341,2.19624343 C14.8177794,2.19624343 13.3535226,3.53042993 13.3535226,5.17032308 C13.3535226,6.81042954 14.8180136,8.14440272 16.6178341,8.14440272 C18.4176547,8.14440272 19.8819114,6.81021619 19.8819114,5.17032308 C19.8819114,3.53042993 18.4176547,2.19624343 16.6178341,2.19624343 Z M18.901213,3.70536324 C18.8016912,4.30034984 18.3694159,4.75389646 17.7437171,4.95058977 C17.6877508,4.71250979 17.5404587,4.50749648 17.3402445,4.35922983 C17.4334436,3.67762992 17.1859273,3.05597665 16.6571744,2.62483004 C17.58378,2.63656338 18.4017311,3.06109665 18.901213,3.70536324 Z M18.5612,6.99816285 C18.1830176,7.33202948 17.7027376,7.57053613 17.1664913,7.66824278 C16.6026131,7.3527228 16.3068581,6.80509621 16.3572043,6.19090959 C16.4412709,6.20882959 16.5279133,6.22056296 16.6178341,6.22056296 C16.7147799,6.22056296 16.8075107,6.20648293 16.8974315,6.18578961 C17.3140176,6.66685623 17.9280079,6.95933618 18.5612,6.99816285 Z M16.6178341,5.793683 C16.2405883,5.793683 15.9335932,5.51400302 15.9335932,5.17032308 C15.9335932,4.82685644 16.2405883,4.54717648 16.6178341,4.54717648 C16.9948457,4.54717648 17.3016067,4.82685644 17.3016067,5.17032308 C17.3016067,5.51421637 16.9948457,5.793683 16.6178341,5.793683 Z M15.9757435,2.69352337 L15.9687185,2.70547003 C16.5916072,3.00605666 16.9156967,3.5327766 16.8873622,4.15250986 C16.8004857,4.13352319 16.7110332,4.12050986 16.6180682,4.12050986 C16.4370559,4.12050986 16.2677519,4.16210986 16.1153081,4.23016318 C15.6439265,3.80989656 15.0128419,3.60168326 14.3808206,3.64882992 C14.7676673,3.17778998 15.3275646,2.83304335 15.9757435,2.69352337 Z M14.0679713,4.1303232 C14.6526905,3.96861655 15.2856484,4.11069653 15.7446191,4.49320315 C15.6045862,4.6427498 15.5109187,4.82664311 15.4807109,5.03058975 C14.8189502,5.19656308 14.2997982,5.60168302 14.0351877,6.14504293 C13.8981989,5.84466964 13.8216258,5.51570968 13.8216258,5.17053638 C13.82186,4.79954977 13.9110782,4.44818982 14.0679713,4.1303232 Z M14.3503787,6.65533621 C14.4735514,6.08978962 14.9105102,5.64754968 15.5172412,5.4657897 C15.5858527,5.67677634 15.7235439,5.85896297 15.9087713,5.99186962 C15.8040978,6.6444562 16.016723,7.26738947 16.4799088,7.71154943 C15.6036495,7.67250946 14.8332345,7.26568281 14.3503787,6.65533621 Z M18.9611601,6.55549625 C18.3698842,6.64338955 17.7441854,6.42813623 17.3261944,5.99208297 C17.5313262,5.84509634 17.6818966,5.63880303 17.740673,5.39901637 C18.4260846,5.2270697 18.9602235,4.80594978 19.219214,4.24274985 C19.3430893,4.53053648 19.4138082,4.84285644 19.4138082,5.17032308 C19.413574,5.68125637 19.2463776,6.1563496 18.9611601,6.55549625 Z" id="Shape" fill="#B0B2B9" fill-rule="nonzero"></path>
                    </g>
                </g>
            </g>
        </g>
    </g>
</svg>