<?xml version="1.0" encoding="UTF-8"?>
<svg width="31px" height="31px" viewBox="0 0 31 31" version="1.1" xmlns="http://www.w3.org/2000/svg" xmlns:xlink="http://www.w3.org/1999/xlink">
    <title>sq-hd</title>
    <g id="Showcase" stroke="none" stroke-width="1" fill="none" fill-rule="evenodd">
        <g id="Desktop" transform="translate(-114.000000, -2043.000000)">
            <g id="sq-hd" transform="translate(114.000000, 2043.000000)">
                <rect id="Rectangle" fill="#43454D" x="0" y="0" width="31" height="31" rx="5"></rect>
                <g id="hd-sg" transform="translate(9.000000, 7.000000)">
                    <rect id="Rectangle" fill="#B0B2B9" fill-rule="nonzero" x="8.66666667" y="12.5" width="3.37037037" height="1" rx="0.227623065"></rect>
                    <rect id="Rectangle" fill="#B0B2B9" fill-rule="nonzero" x="8.66666667" y="14" width="3.37037037" height="1" rx="0.227623065"></rect>
                    <rect id="Rectangle" stroke="#B0B2B9" stroke-width="0.5" x="0" y="0" width="13" height="17" rx="1.04254839"></rect>
                    <ellipse id="Oval" fill="#B0B2B9" fill-rule="nonzero" cx="11.3148148" cy="1.25" rx="1" ry="1"></ellipse>
                    <ellipse id="Oval" fill="#B0B2B9" fill-rule="nonzero" cx="1.68518519" cy="1.25" rx="1" ry="1"></ellipse>
                    <ellipse id="Oval" fill="#B0B2B9" fill-rule="nonzero" cx="1.68518519" cy="1.25" rx="1" ry="1"></ellipse>
                    <ellipse id="Oval" fill="#B0B2B9" fill-rule="nonzero" cx="11.3148148" cy="15.75" rx="1" ry="1"></ellipse>
                    <ellipse id="Oval" fill="#B0B2B9" fill-rule="nonzero" cx="1.68518519" cy="15.75" rx="1" ry="1"></ellipse>
                    <path d="M1.48931666,12.1236637 L6.2172421,9.0560326 C6.34278638,8.97457535 6.5065741,8.98256749 6.62353987,9.07585805 C6.73798864,9.1671412 6.77334676,9.32550407 6.70854215,9.45656868 L4.07602454,14.780725 L5.72211139,16.5 L4.78149033,16.5 L0,11.4984728 L0,10.6388353 L1.48931666,12.1236637 Z M1.95962718,12.6707057 L3.52732893,14.233683 L5.56534121,10.248091 L1.95962718,12.6707057 Z" id="Shape" fill="#B0B2B9" fill-rule="nonzero"></path>
                    <path d="M5.58802674,11.9006114 L5.8282589,11.2878735 C6.04662731,11.3284576 6.27105565,11.3495935 6.5,11.3495935 C8.6975811,11.3495935 10.4790726,9.40221414 10.4790726,7 C10.4790726,4.59778585 8.6975811,2.65040651 6.5,2.65040651 C4.30241889,2.65040651 2.52092743,4.59778585 2.52092743,7 C2.52092743,8.44486521 3.16541565,9.72518534 4.15728888,10.5161918 L3.60308068,10.8695836 C2.57925304,9.95263266 1.92592593,8.55971716 1.92592593,7 C1.92592593,4.23857625 3.97380864,2 6.5,2 C9.02619134,2 11.0740741,4.23857625 11.0740741,7 C11.0740741,9.7614237 9.02619134,12 6.5,12 C6.18771097,12 5.8827315,11.96579 5.58802674,11.9006114 Z" id="Path" fill="#B0B2B9" fill-rule="nonzero"></path>
                    <path d="M6.25925926,8.49999999 C5.46151464,8.49999999 4.81481481,7.82842714 4.81481481,6.99999999 C4.81481481,6.1715729 5.46151464,5.49999999 6.25925926,5.49999999 C7.05700392,5.49999999 7.7037037,6.1715729 7.7037037,6.99999999 C7.7037037,7.82842714 7.05700392,8.49999999 6.25925926,8.49999999 Z M6.25925926,7.81428572 C6.69232065,7.81428572 7.04338628,7.44971761 7.04338628,7 C7.04338628,6.55028243 6.69232065,6.18571428 6.25925926,6.18571428 C5.82619791,6.18571428 5.47513229,6.55028243 5.47513229,7 C5.47513229,7.44971761 5.82619791,7.81428572 6.25925926,7.81428572 Z" id="Shape" fill="#B0B2B9" fill-rule="nonzero"></path>
                </g>
            </g>
        </g>
    </g>
</svg>