<?xml version="1.0" encoding="UTF-8"?>
<svg width="31px" height="31px" viewBox="0 0 31 31" version="1.1" xmlns="http://www.w3.org/2000/svg" xmlns:xlink="http://www.w3.org/1999/xlink">
    <title>sq-ram</title>
    <g id="Showcase" stroke="none" stroke-width="1" fill="none" fill-rule="evenodd">
        <g id="Desktop" transform="translate(-114.000000, -2002.000000)">
            <g id="sq-ram" transform="translate(114.000000, 2002.000000)">
                <rect id="Rectangle" fill="#43454D" x="0" y="0" width="31" height="31" rx="5"></rect>
                <g id="ram-sg" transform="translate(10.000000, 7.000000)">
                    <g id="Group" transform="translate(6.000000, 9.500000) rotate(-90.000000) translate(-6.000000, -9.500000) translate(-3.525172, 3.515856)">
                        <path d="M0,2.7529576 C0.936585041,2.89013954 1.65655159,3.71493636 1.65655159,4.71192452 C1.65655159,5.70891267 0.936585041,6.53370951 0,6.67089144 L0,9.04689509 C0,9.25508103 0.164814091,9.42384906 0.368122575,9.42384906 L18.6822207,9.42384906 C18.8855292,9.42384906 19.0503433,9.25508103 19.0503433,9.04689509 L19.0503433,6.67089144 C18.1137583,6.53370951 17.3937917,5.70891267 17.3937917,4.71192452 C17.3937917,3.71493636 18.1137583,2.89013954 19.0503433,2.7529576 L19.0503433,0.376953962 C19.0503433,0.168768037 18.8855292,0 18.6822207,0 L0.368122575,0 C0.164814091,0 0,0.168768037 0,0.376953962 L0,2.7529576 Z" id="Path" stroke="#B0B2B9" stroke-width="0.5"></path>
                        <rect id="Rectangle" stroke="#B0B2B9" stroke-width="0.5" x="2.9449806" y="2.35596226" width="1.93264352" height="4.80616301"></rect>
                        <rect id="Rectangle" stroke="#B0B2B9" stroke-width="0.5" x="6.62620637" y="2.35596226" width="1.93264352" height="4.80616301"></rect>
                        <rect id="Rectangle" stroke="#B0B2B9" stroke-width="0.5" x="10.3074321" y="2.35596226" width="1.93264352" height="4.80616301"></rect>
                        <rect id="Rectangle" stroke="#B0B2B9" stroke-width="0.5" x="14.2647498" y="2.26172377" width="1.93264352" height="4.80616301"></rect>
                        <path d="M10.6755547,11.9682883 L17.0256691,11.9682883 C17.3306318,11.9682883 17.577853,11.7151362 17.577853,11.4028573 L17.577853,9.42384906 L1.4724903,9.42384906 L1.4724903,11.4028573 C1.4724903,11.7151362 1.71971144,11.9682883 2.02467417,11.9682883 L8.37478856,11.9682883 L8.37478856,11.3557381 C8.37478856,10.7051571 8.88983263,10.177757 9.52517163,10.177757 C10.1605106,10.177757 10.6755547,10.7051571 10.6755547,11.3557381 L10.6755547,11.9682883 Z" id="Path" stroke="#B0B2B9" stroke-width="0.5"></path>
                        <path d="M3.17505721,10.6489494 C3.45460637,10.6489494 3.68122575,10.8810055 3.68122575,11.1672611 L3.68122575,11.7798113 L2.66888867,11.7798113 L2.66888867,11.1672611 C2.66888867,10.8810055 2.89550805,10.6489494 3.17505721,10.6489494 Z M4.55551687,10.6489494 C4.83506603,10.6489494 5.06168541,10.8810055 5.06168541,11.1672611 L5.06168541,11.7798113 L4.04934833,11.7798113 L4.04934833,11.1672611 C4.04934833,10.8810055 4.2759677,10.6489494 4.55551687,10.6489494 Z M6.02800715,10.6489494 C6.30755631,10.6489494 6.53417569,10.8810055 6.53417569,11.1672611 L6.53417569,11.7798113 L5.52183862,11.7798113 L5.52183862,11.1672611 C5.52183862,10.8810055 5.748458,10.6489494 6.02800715,10.6489494 Z M12.5621829,10.7431879 C12.8417321,10.7431879 13.0683514,10.975244 13.0683514,11.2614996 L13.0683514,11.8740498 L12.0560144,11.8740498 L12.0560144,11.2614996 C12.0560144,10.975244 12.2826337,10.7431879 12.5621829,10.7431879 Z M13.9426425,10.7431879 C14.2221917,10.7431879 14.4488111,10.975244 14.4488111,11.2614996 L14.4488111,11.8740498 L13.436474,11.8740498 L13.436474,11.2614996 C13.436474,10.975244 13.6630934,10.7431879 13.9426425,10.7431879 Z M15.4151328,10.7431879 C15.694682,10.7431879 15.9213014,10.975244 15.9213014,11.2614996 L15.9213014,11.8740498 L14.9089643,11.8740498 L14.9089643,11.2614996 C14.9089643,10.975244 15.1355837,10.7431879 15.4151328,10.7431879 Z" id="Shape" fill="#B0B2B9" fill-rule="nonzero"></path>
                    </g>
                </g>
            </g>
        </g>
    </g>
</svg>