<?xml version="1.0" encoding="UTF-8"?>
<svg width="68px" height="29px" viewBox="0 0 68 29" version="1.1" xmlns="http://www.w3.org/2000/svg" xmlns:xlink="http://www.w3.org/1999/xlink">
    <title>g12</title>
    <g id="Showcase" stroke="none" stroke-width="1" fill="none" fill-rule="evenodd">
        <g id="Showcase-Subcategory" transform="translate(-976.000000, -1306.592593)" fill-rule="nonzero">
            <g id="g12" transform="translate(1010.000000, 1321.092593) scale(-1, 1) rotate(-180.000000) translate(-1010.000000, -1321.092593) translate(976.000000, 1306.592593)">
                <polygon id="path20" fill="#E3163D" points="-4.54747351e-13 4.54747351e-13 68 4.54747351e-13 68 29 -4.54747351e-13 29"></polygon>
                <g id="Group-27" transform="translate(8.000000, 8.000000)" fill="#FFFFFF">
                    <polyline id="path22" points="53.7846044 5.9999289 53.7855701 1.88656137 50.4471115 5.9999289 49.2768711 5.9999289 49.2776037 0 50.4922335 0 50.4912678 4.11429284 53.8297596 0 55 0 54.9992674 5.9999289 53.7846044 5.9999289"></polyline>
                    <polyline id="path24" points="12.3532591 5.9999289 9.66672116 0.00092530195 11.0132868 0.00092530195 13.1305888 4.79588622 13.1305888 4.79496092 13.1340188 4.8012243 14.0869411 2.61544943 13.0262255 2.61544943 13.003548 2.59224682 13.0262255 2.61544943 11.9863559 1.58734772 14.564135 1.58734772 15.2579141 0.00092530195 16.6011831 0.00092530195 13.9130468 5.9999289 12.3532591 5.9999289"></polyline>
                    <polyline id="path26" points="30.5383727 5.9999289 30.5391053 0.00092530195 35.0461059 0.00092530195 35.0444075 1.02813726 31.7444442 1.02813726 31.7444442 2.4815009 34.6090389 2.4815009 34.6073406 3.52839229 31.7427459 3.52839229 31.7427459 4.97186274 34.4853948 4.97186274 35.5251312 5.99996445 30.5383727 5.99996445"></polyline>
                    <path d="M40.3531138,5.9999289 L40.3514155,5.9999289 L39.3250991,4.98264554 L39.3250991,1.01927616 L40.3531471,0.0018506039 L43.9464531,0.0018506039 L44.9754668,1.01927616 L44.9737685,4.98264554 L43.9457205,5.9999289 L40.3531138,5.9999289 Z M40.4140867,1.51578279 L40.4140867,4.48688632 L40.9791934,5.0478049 L43.3186752,5.0478049 L43.8862128,4.48688632 L43.8862128,1.51578279 L43.3186752,0.954864214 L40.9808916,0.954864214 L40.4140867,1.51578279" id="path28"></path>
                    <path d="M0,5.9999289 L0.000732596637,0 L1.21449654,0 L1.21449654,1.97140017 L3.07765032,1.97140017 L4.50859905,0 L5.93881518,0 L4.46430961,2.01428222 L4.46430961,2.01520752 L5.39209027,2.93256316 L5.39209027,4.99688026 L4.37906075,5.99829189 L4.37819494,6 L0,6 L0,5.9999289 Z M1.21449654,4.97182719 L3.81238893,4.97182719 L4.29128106,4.50019574 L4.29128106,3.46946062 L3.81398735,2.99950187 L1.21449654,2.99950187 L1.21449654,4.97182719" id="path30"></path>
                    <path d="M20.5180352,5.9999289 L20.5197335,0.00092530195 L25.0250358,0.00092530195 L26.2403982,1.20237012 L26.2386999,4.8030392 L25.0258017,5.9999289 L20.5180352,5.9999289 Z M21.7308,4.97182719 L24.4624599,4.97182719 L25.0257351,4.41443164 L25.0257351,1.58642257 L24.4632924,1.02902701 L21.7324651,1.02902701 L21.7308,4.97182719" id="path32"></path>
                </g>
                <g id="Ryzen-AMD-White-Logo.wine" transform="translate(20.500000, 18.000000) scale(1, -1) translate(-20.500000, -18.000000) translate(8.000000, 15.000000)" fill="#FFFFFF">
                    <path d="M2.84571415,1.59938951 L2.08860603,3.68475343 L3.67813184,3.68475343 L2.84571415,1.59938951 Z M5.86426994,5.68422714 L4.47968495,5.68422714 L4.05622292,4.6216515 L1.74816973,4.6216515 L1.3623625,5.68422714 L0,5.68422714 L2.08119853,0.316088627 L3.57195768,0.316088627 L5.86426994,5.68422714 Z M10.9164928,0.316088627 L12.036877,0.316088627 L12.036877,5.68422714 L10.7498241,5.68422714 L10.7498241,2.33103521 L9.3578316,4.01568338 L9.16060695,4.01568338 L7.76861445,2.33103521 L7.76861445,5.68422714 L6.48156152,5.68422714 L6.48156152,0.316088627 L7.60132843,0.316088627 L9.2587563,2.30766802 L10.9164928,0.316088627 M14.2785713,4.70027893 L15.1378413,4.70027893 C16.4606971,4.70027893 16.8557637,3.78769539 16.8557637,3.00015788 C16.8557637,2.07904848 16.368412,1.29972107 15.1221003,1.29972107 L14.2785713,1.29972107 L14.2785713,4.70027893 Z M15.2924728,0.316088627 C17.2196571,0.316088627 18.2101015,1.53591916 18.2101015,3.00773644 C18.2101015,4.5506026 17.2502131,5.68422714 15.1452487,5.68422714 L12.963123,5.68422714 L12.963123,0.316088627 L15.2924728,0.316088627 Z M23.3894864,1.6483343 L20.7468611,1.6483343 L19.1357301,0 L25,0 L25,5.99968423 L23.3894864,4.35198147 L23.3894864,1.6483343 M20.8082817,4.28914268 L20.8082817,1.8949529 L19.1360388,3.6048629 L19.1360388,6 L21.4758825,6 L23.1484339,4.28914268 L20.8082817,4.28914268" id="Shape"></path>
                </g>
            </g>
        </g>
    </g>
</svg>